<svg width="64px" height="64px" viewBox="0 0 64 64" fill="none" xmlns="http://www.w3.org/2000/svg"><g id="SVGRepo_bgCarrier" stroke-width="0"></g><g id="SVGRepo_tracerCarrier" stroke-linecap="round" stroke-linejoin="round"></g><g id="SVGRepo_iconCarrier"> <path d="M31.67 22.1611C36.0883 22.1611 39.67 18.5794 39.67 14.1611C39.67 9.74285 36.0883 6.16113 31.67 6.16113C27.2517 6.16113 23.67 9.74285 23.67 14.1611C23.67 18.5794 27.2517 22.1611 31.67 22.1611Z" fill="#999999"></path> <path d="M31.67 40.1709C36.0883 40.1709 39.67 36.5892 39.67 32.1709C39.67 27.7526 36.0883 24.1709 31.67 24.1709C27.2517 24.1709 23.67 27.7526 23.67 32.1709C23.67 36.5892 27.2517 40.1709 31.67 40.1709Z" fill="#FFFFFF"></path> <path d="M31.67 58.1611C36.0883 58.1611 39.67 54.5794 39.67 50.1611C39.67 45.7429 36.0883 42.1611 31.67 42.1611C27.2517 42.1611 23.67 45.7429 23.67 50.1611C23.67 54.5794 27.2517 58.1611 31.67 58.1611Z" fill="#999999"></path> </g></svg>
